<mxfile host="app.diagrams.net" modified="2021-05-27T00:23:10.321Z" agent="5.0 (Macintosh; Intel Mac OS X 10_15_7) AppleWebKit/537.36 (KHTML, like Gecko) Chrome/90.0.4430.212 Safari/537.36" etag="QB6cGprBZe-So9H9YeCo" version="14.7.0" type="github">
  <diagram id="ImTZZLO0yY7EVx91xZJn" name="Page-1">
    <mxGraphModel dx="1426" dy="711" grid="1" gridSize="10" guides="1" tooltips="1" connect="1" arrows="1" fold="1" page="1" pageScale="1" pageWidth="850" pageHeight="1100" math="0" shadow="0">
      <root>
        <mxCell id="0" />
        <mxCell id="1" parent="0" />
        <mxCell id="q0pasW9DaCElqOI0zGHF-8" style="edgeStyle=orthogonalEdgeStyle;rounded=0;orthogonalLoop=1;jettySize=auto;html=1;exitX=1;exitY=0.5;exitDx=0;exitDy=0;entryX=0;entryY=0.5;entryDx=0;entryDy=0;" parent="1" source="q0pasW9DaCElqOI0zGHF-1" target="q0pasW9DaCElqOI0zGHF-3" edge="1">
          <mxGeometry relative="1" as="geometry" />
        </mxCell>
        <mxCell id="qDQwu9yoxhWOiVDO1wQ5-7" value="Transfer" style="edgeLabel;html=1;align=center;verticalAlign=middle;resizable=0;points=[];" vertex="1" connectable="0" parent="q0pasW9DaCElqOI0zGHF-8">
          <mxGeometry x="-0.0444" y="2" relative="1" as="geometry">
            <mxPoint as="offset" />
          </mxGeometry>
        </mxCell>
        <mxCell id="q0pasW9DaCElqOI0zGHF-13" style="edgeStyle=orthogonalEdgeStyle;rounded=0;orthogonalLoop=1;jettySize=auto;html=1;exitX=0.25;exitY=0;exitDx=0;exitDy=0;entryX=0.25;entryY=1;entryDx=0;entryDy=0;" parent="1" source="q0pasW9DaCElqOI0zGHF-1" target="q0pasW9DaCElqOI0zGHF-4" edge="1">
          <mxGeometry relative="1" as="geometry" />
        </mxCell>
        <mxCell id="qDQwu9yoxhWOiVDO1wQ5-3" value="Transfer" style="edgeLabel;html=1;align=center;verticalAlign=middle;resizable=0;points=[];" vertex="1" connectable="0" parent="q0pasW9DaCElqOI0zGHF-13">
          <mxGeometry x="0.1636" y="1" relative="1" as="geometry">
            <mxPoint x="1" as="offset" />
          </mxGeometry>
        </mxCell>
        <mxCell id="q0pasW9DaCElqOI0zGHF-1" value="RAILR&lt;br&gt;0x1" style="whiteSpace=wrap;html=1;aspect=fixed;" parent="1" vertex="1">
          <mxGeometry x="260" y="340" width="170" height="170" as="geometry" />
        </mxCell>
        <mxCell id="q0pasW9DaCElqOI0zGHF-9" style="edgeStyle=orthogonalEdgeStyle;rounded=0;orthogonalLoop=1;jettySize=auto;html=1;exitX=1;exitY=0.5;exitDx=0;exitDy=0;entryX=0;entryY=0.5;entryDx=0;entryDy=0;" parent="1" source="q0pasW9DaCElqOI0zGHF-3" target="q0pasW9DaCElqOI0zGHF-5" edge="1">
          <mxGeometry relative="1" as="geometry" />
        </mxCell>
        <mxCell id="qDQwu9yoxhWOiVDO1wQ5-9" value="Transfer" style="edgeLabel;html=1;align=center;verticalAlign=middle;resizable=0;points=[];" vertex="1" connectable="0" parent="q0pasW9DaCElqOI0zGHF-9">
          <mxGeometry x="-0.0222" y="-1" relative="1" as="geometry">
            <mxPoint as="offset" />
          </mxGeometry>
        </mxCell>
        <mxCell id="q0pasW9DaCElqOI0zGHF-3" value="ConversionUtil&lt;br&gt;0x2" style="whiteSpace=wrap;html=1;aspect=fixed;" parent="1" vertex="1">
          <mxGeometry x="520" y="340" width="170" height="170" as="geometry" />
        </mxCell>
        <mxCell id="q0pasW9DaCElqOI0zGHF-10" style="edgeStyle=orthogonalEdgeStyle;rounded=0;orthogonalLoop=1;jettySize=auto;html=1;exitX=0.5;exitY=1;exitDx=0;exitDy=0;entryX=0.5;entryY=0;entryDx=0;entryDy=0;" parent="1" source="q0pasW9DaCElqOI0zGHF-4" target="q0pasW9DaCElqOI0zGHF-1" edge="1">
          <mxGeometry relative="1" as="geometry" />
        </mxCell>
        <mxCell id="qDQwu9yoxhWOiVDO1wQ5-2" value="Deploy" style="edgeLabel;html=1;align=center;verticalAlign=middle;resizable=0;points=[];" vertex="1" connectable="0" parent="q0pasW9DaCElqOI0zGHF-10">
          <mxGeometry x="-0.1273" y="-1" relative="1" as="geometry">
            <mxPoint as="offset" />
          </mxGeometry>
        </mxCell>
        <mxCell id="q0pasW9DaCElqOI0zGHF-14" style="edgeStyle=orthogonalEdgeStyle;rounded=0;orthogonalLoop=1;jettySize=auto;html=1;exitX=0;exitY=0.5;exitDx=0;exitDy=0;" parent="1" source="q0pasW9DaCElqOI0zGHF-4" target="q0pasW9DaCElqOI0zGHF-6" edge="1">
          <mxGeometry relative="1" as="geometry" />
        </mxCell>
        <mxCell id="qDQwu9yoxhWOiVDO1wQ5-4" value="Transfer" style="edgeLabel;html=1;align=center;verticalAlign=middle;resizable=0;points=[];" vertex="1" connectable="0" parent="q0pasW9DaCElqOI0zGHF-14">
          <mxGeometry x="0.3063" relative="1" as="geometry">
            <mxPoint as="offset" />
          </mxGeometry>
        </mxCell>
        <mxCell id="q0pasW9DaCElqOI0zGHF-15" style="edgeStyle=orthogonalEdgeStyle;rounded=0;orthogonalLoop=1;jettySize=auto;html=1;exitX=1;exitY=0.5;exitDx=0;exitDy=0;entryX=0;entryY=0.5;entryDx=0;entryDy=0;" parent="1" source="q0pasW9DaCElqOI0zGHF-4" target="q0pasW9DaCElqOI0zGHF-7" edge="1">
          <mxGeometry relative="1" as="geometry" />
        </mxCell>
        <mxCell id="qDQwu9yoxhWOiVDO1wQ5-8" value="Transfer" style="edgeLabel;html=1;align=center;verticalAlign=middle;resizable=0;points=[];" vertex="1" connectable="0" parent="q0pasW9DaCElqOI0zGHF-15">
          <mxGeometry x="-0.1333" y="-1" relative="1" as="geometry">
            <mxPoint as="offset" />
          </mxGeometry>
        </mxCell>
        <mxCell id="q0pasW9DaCElqOI0zGHF-4" value="Multisig deploymen wallet&lt;br&gt;0x3" style="whiteSpace=wrap;html=1;aspect=fixed;" parent="1" vertex="1">
          <mxGeometry x="260" y="60" width="170" height="170" as="geometry" />
        </mxCell>
        <mxCell id="q0pasW9DaCElqOI0zGHF-5" value="Multisig treasury wallet&lt;br&gt;0x4" style="whiteSpace=wrap;html=1;aspect=fixed;" parent="1" vertex="1">
          <mxGeometry x="780" y="340" width="170" height="170" as="geometry" />
        </mxCell>
        <mxCell id="q0pasW9DaCElqOI0zGHF-6" value="Multisig distribution wallet&lt;br&gt;0x5" style="whiteSpace=wrap;html=1;aspect=fixed;" parent="1" vertex="1">
          <mxGeometry y="340" width="170" height="170" as="geometry" />
        </mxCell>
        <mxCell id="q0pasW9DaCElqOI0zGHF-7" value="Multisig team allocation wallet&lt;br&gt;0x6" style="whiteSpace=wrap;html=1;aspect=fixed;" parent="1" vertex="1">
          <mxGeometry x="520" y="60" width="170" height="170" as="geometry" />
        </mxCell>
      </root>
    </mxGraphModel>
  </diagram>
</mxfile>
